PathFileType	4	(X/Y/Z)	RBDS019static.trc
DataRate	CameraRate	NumFrames	NumMarkers	Units	OrigDataRate	OrigDataStartFrame	OrigNumFrames
150.000000	150.000000	4	48	mm	150.000000	56	150
Frame#	Time	L.Ankle			L.Ankle.Medial			L.ASIS			L.GTR			L.Heel.Bottom			L.Heel.Lateral			L.Heel.Top			L.HF			L.Iliac.Crest			L.Knee			L.Knee.Medial			L.MT1			L.MT2			L.MT5			L.PSIS			L.Shank.Bottom.Lateral			L.Shank.Bottom.Medial			L.Shank.Top.Lateral			L.Shank.Top.Medial			L.Thigh.Bottom.Lateral			L.Thigh.Bottom.Medial			L.Thigh.Top.Lateral			L.Thigh.Top.Medial			L.TT			R.Ankle			R.Ankle.Medial			R.ASIS			R.GTR			R.Heel.Bottom			R.Heel.Lateral			R.Heel.Top			R.HF			R.Iliac.Crest			R.Knee			R.Knee.Medial			R.MT1			R.MT2			R.MT5			R.PSIS			R.Shank.Bottom.Lateral			R.Shank.Bottom.Medial			R.Shank.Top.Lateral			R.Shank.Top.Medial			R.Thigh.Bottom.Lateral			R.Thigh.Bottom.Medial			R.Thigh.Top.Lateral			R.Thigh.Top.Medial			R.TT			
		X1	Y1	Z1	X2	Y2	Z2	X3	Y3	Z3	X4	Y4	Z4	X5	Y5	Z5	X6	Y6	Z6	X7	Y7	Z7	X8	Y8	Z8	X9	Y9	Z9	X10	Y10	Z10	X11	Y11	Z11	X12	Y12	Z12	X13	Y13	Z13	X14	Y14	Z14	X15	Y15	Z15	X16	Y16	Z16	X17	Y17	Z17	X18	Y18	Z18	X19	Y19	Z19	X20	Y20	Z20	X21	Y21	Z21	X22	Y22	Z22	X23	Y23	Z23	X24	Y24	Z24	X25	Y25	Z25	X26	Y26	Z26	X27	Y27	Z27	X28	Y28	Z28	X29	Y29	Z29	X30	Y30	Z30	X31	Y31	Z31	X32	Y32	Z32	X33	Y33	Z33	X34	Y34	Z34	X35	Y35	Z35	X36	Y36	Z36	X37	Y37	Z37	X38	Y38	Z38	X39	Y39	Z39	X40	Y40	Z40	X41	Y41	Z41	X42	Y42	Z42	X43	Y43	Z43	X44	Y44	Z44	X45	Y45	Z45	X46	Y46	Z46	X47	Y47	Z47	X48	Y48	Z48	

57	0.3733333333333334	710.438720703125	94.57791900634766	1046.721801757813	717.8582763671875	101.8800582885742	1126.786254882813	832.0534057617188	971.17724609375	1114.047607421875	768.918701171875	891.0057373046875	1051.5908203125	635.236572265625	36.39749526977539	1081.843994140625	666.8040771484375	56.41144943237305	1040.5986328125	643.6842651367188	84.30999755859375	1083.062622070313	720.2410278320313	441.9418640136719	1036.722534179688	772.7708740234375	1024.956298828125	1072.767456054688	724.900390625	500.5273132324219	1043.522827148438	706.4676513671875	481.136474609375	1165.927734375	836.6702880859375	54.20678329467773	1127.625122070313	845.8155517578125	67.43978881835938	1084.479125976563	812.5269775390625	48.3189697265625	1020.983154296875	657.2568359375	994.7266235351563	1166.867309570313	699.9271240234375	176.7757110595703	1037.159545898438	660.961669921875	172.4858245849609	1069.995727539063	686.9425048828125	255.8844299316406	1026.278930664063	648.3466796875	255.7777709960938	1062.337768554688	725.443115234375	613.1800537109375	1036.437377929688	662.5633544921875	620.937744140625	1074.017456054688	735.7020263671875	722.4369506835938	1033.606567382813	676.310546875	729.4063720703125	1070.587890625	769.567626953125	425.9891052246094	1090.185424804688	706.2780151367188	98.8157958984375	1406.874145507813	723.6701049804688	109.3588104248047	1327.591552734375	815.2831420898438	972.7971801757813	1350.388916015625	743.6476440429688	898.4703979492188	1401.37109375	634.5672607421875	40.01157760620117	1368.185180664063	661.904541015625	57.31388473510742	1407.343627929688	644.1280517578125	84.96401214599609	1365.920654296875	715.156982421875	451.3194885253906	1404.574951171875	758.18701171875	1036.327758789063	1367.838012695313	718.2640380859375	511.6216430664063	1397.170532226563	722.478759765625	484.9060974121094	1274.427490234375	832.3623046875	58.74861526489258	1328.452392578125	846.5836791992188	69.90374755859375	1370.993896484375	805.692626953125	47.61353302001953	1434.548461914063	653.6893310546875	1003.904663085938	1268.423461914063	698.1353759765625	170.9849090576172	1411.89453125	659.1891479492188	168.6704406738281	1372.089599609375	683.8295288085938	250.5859680175781	1419.97509765625	647.369140625	247.8321685791016	1379.824829101563	706.8466186523438	607.3223266601563	1404.86328125	656.257080078125	610.3772583007813	1354.099853515625	708.2868041992188	717.716552734375	1409.230224609375	657.557373046875	720.1090087890625	1363.416259765625	768.4429931640625	429.8008728027344	1352.683959960938	
58	0.38	710.4381713867188	94.57699584960938	1046.715454101563	717.8569946289063	101.8884963989258	1126.775756835938	832.05029296875	971.1856689453125	1114.037841796875	768.9186401367188	891.006591796875	1051.5654296875	635.2410888671875	36.38858032226563	1081.838623046875	666.80029296875	56.41131210327148	1040.595458984375	643.6808471679688	84.31282043457031	1083.070434570313	720.234130859375	441.9456176757813	1036.699584960938	772.780029296875	1024.95361328125	1072.754028320313	724.8977661132813	500.5290222167969	1043.51220703125	706.4591064453125	481.1391906738281	1165.919311523438	836.6676635742188	54.2136116027832	1127.62841796875	845.813232421875	67.43650817871094	1084.479858398438	812.530029296875	48.32346725463867	1020.974853515625	657.2515258789063	994.7200317382813	1166.826416015625	699.9234619140625	176.7827301025391	1037.1455078125	660.9634399414063	172.486572265625	1069.988525390625	686.93994140625	255.8852844238281	1026.268798828125	648.3345336914063	255.7757415771484	1062.323852539063	725.42333984375	613.1895141601563	1036.426635742188	662.5626831054688	620.941650390625	1073.9990234375	735.6948852539063	722.439453125	1033.597290039063	676.3026733398438	729.4107666015625	1070.56787109375	769.5708618164063	425.9925842285156	1090.173828125	706.2869873046875	98.81069183349609	1406.851318359375	723.6710815429688	109.3529205322266	1327.569946289063	815.255859375	972.7954711914063	1350.367919921875	743.6076049804688	898.475341796875	1401.352905273438	634.5631713867188	40.01049423217773	1368.17724609375	661.9142456054688	57.31304168701172	1407.340209960938	644.1240844726563	84.96179962158203	1365.923095703125	715.1580200195313	451.3225402832031	1404.561645507813	758.1505126953125	1036.322998046875	1367.821411132813	718.264404296875	511.6346130371094	1397.152954101563	722.4830322265625	484.9053344726563	1274.407592773438	832.3610229492188	58.75054168701172	1328.451293945313	846.5955200195313	69.91359710693359	1370.985229492188	805.6870727539063	47.61301803588867	1434.547485351563	653.6696166992188	1003.894775390625	1268.39501953125	698.1244506835938	170.9895324707031	1411.890014648438	659.1881713867188	168.6695251464844	1372.083618164063	683.833984375	250.5875396728516	1419.971801757813	647.3653564453125	247.8339233398438	1379.817016601563	706.8357543945313	607.3272705078125	1404.840698242188	656.2476196289063	610.3682250976563	1354.059936523438	708.2632446289063	717.711181640625	1409.21826171875	657.537841796875	720.1049194335938	1363.392456054688	768.4407348632813	429.7981262207031	1352.673950195313	
59	0.3866666666666667	710.421875	94.58160400390625	1046.719604492188	717.8487548828125	101.8820648193359	1126.777221679688	832.0430297851563	971.1763305664063	1114.035278320313	768.9074096679688	890.9970703125	1051.552978515625	635.2264404296875	36.39897155761719	1081.83544921875	666.8046875	56.40152740478516	1040.589599609375	643.6834716796875	84.31285858154297	1083.068359375	720.2420654296875	441.9437561035156	1036.697021484375	772.783935546875	1024.95703125	1072.72412109375	724.895751953125	500.5273132324219	1043.497436523438	706.4522705078125	481.1417236328125	1165.908935546875	836.6726684570313	54.20436096191406	1127.621948242188	845.8045654296875	67.4420166015625	1084.477783203125	812.5364379882813	48.32257843017578	1020.966369628906	657.2205200195313	994.7227783203125	1166.774291992188	699.91845703125	176.769775390625	1037.136962890625	660.9566040039063	172.4861145019531	1069.977661132813	686.9359741210938	255.8838653564453	1026.2626953125	648.3330078125	255.7739868164063	1062.319702148438	725.4447021484375	613.1817626953125	1036.4111328125	662.5536499023438	620.9406127929688	1073.977294921875	735.6991577148438	722.435791015625	1033.583862304688	676.3037109375	729.4057006835938	1070.550903320313	769.554443359375	425.9766235351563	1090.169311523438	706.303955078125	98.99939727783203	1407.056640625	723.6824340820313	109.3501281738281	1327.584350585938	815.2239990234375	972.7850952148438	1350.346801757813	743.57666015625	898.468994140625	1401.33447265625	634.56884765625	40.00922012329102	1368.185913085938	661.9100341796875	57.32149887084961	1407.337768554688	644.1259155273438	84.95320129394531	1365.91796875	715.1502685546875	451.3245239257813	1404.549560546875	758.1122436523438	1036.318603515625	1367.804077148438	718.2506713867188	511.6307373046875	1397.134765625	722.477783203125	484.8998413085938	1274.394775390625	832.3673706054688	58.74367141723633	1328.461669921875	846.5985717773438	69.91743469238281	1371.016967773438	805.6880493164063	47.612548828125	1434.549072265625	653.642333984375	1003.893310546875	1268.35693359375	698.1237182617188	170.9873199462891	1411.891479492188	659.1837768554688	168.6607666015625	1372.082397460938	683.822509765625	250.577880859375	1419.95947265625	647.3636474609375	247.8327789306641	1379.802978515625	706.8161010742188	607.3236694335938	1404.823120117188	656.2451782226563	610.3576049804688	1354.033813476563	708.2387084960938	717.7076416015625	1409.194213867188	657.5074462890625	720.1043701171875	1363.353393554688	768.4347534179688	429.8020324707031	1352.657470703125	
60	0.3933333333333334	710.433349609375	94.57859039306641	1046.714965820313	717.8506469726563	101.8898391723633	1126.778076171875	832.0490112304688	971.1815185546875	1114.011352539063	768.9205932617188	891.0066528320313	1051.524291992188	635.2255249023438	36.39852905273438	1081.838989257813	666.80908203125	56.40596389770508	1040.591186523438	643.677001953125	84.30775451660156	1083.0537109375	720.2291870117188	441.9326782226563	1036.6904296875	772.7808227539063	1024.958862304688	1072.694580078125	724.8933715820313	500.5280151367188	1043.487426757813	706.4428100585938	481.1466064453125	1165.896606445313	836.6788330078125	54.21278381347656	1127.629638671875	845.8075561523438	67.43280792236328	1084.47802734375	812.5333251953125	48.32477951049805	1020.965881347656	657.2208251953125	994.7161254882813	1166.745239257813	699.9215087890625	176.7702789306641	1037.14404296875	660.9554443359375	172.4803161621094	1069.97705078125	686.9296875	255.8833312988281	1026.261474609375	648.3292236328125	255.7792205810547	1062.311401367188	725.4405517578125	613.1831665039063	1036.397583007813	662.5547485351563	620.9431762695313	1073.959716796875	735.699462890625	722.4410400390625	1033.572143554688	676.3046264648438	729.405517578125	1070.5322265625	769.561767578125	425.9739685058594	1090.148681640625	706.30859375	99.00112915039063	1407.054931640625	723.6768798828125	109.3468475341797	1327.588012695313	815.1935424804688	972.793701171875	1350.338623046875	743.55126953125	898.4667358398438	1401.303955078125	634.56494140625	40.00876235961914	1368.189331054688	661.9057006835938	57.31613922119141	1407.344970703125	644.1223754882813	84.96202850341797	1365.908081054688	715.150146484375	451.3175048828125	1404.531616210938	758.0713500976563	1036.31201171875	1367.779296875	718.2329711914063	511.6318359375	1397.110107421875	722.4888916015625	484.8857727050781	1274.37451171875	832.366455078125	58.74337768554688	1328.45947265625	846.5838623046875	69.91338348388672	1371.006591796875	805.6944580078125	47.60922241210938	1434.547607421875	653.6160888671875	1003.899780273438	1268.321899414063	698.1220092773438	170.9861145019531	1411.88134765625	659.1835327148438	168.6609497070313	1372.076782226563	683.8247680664063	250.5867614746094	1419.948364257813	647.36181640625	247.8269653320313	1379.795166015625	706.8012084960938	607.3174438476563	1404.794311523438	656.2268676757813	610.3550415039063	1353.995361328125	708.2205810546875	717.7041015625	1409.174560546875	657.497314453125	720.1001586914063	1363.325073242188	768.4190063476563	429.8009948730469	1352.643310546875	
